<?xml version="1.0" encoding="utf-8"?>
<!-- Generator: Adobe Illustrator 11 Build 196, SVG Export Plug-In  -->
<!DOCTYPE svg PUBLIC "-//W3C//DTD SVG 1.1//EN" "http://www.w3.org/Graphics/SVG/1.1/DTD/svg11.dtd">
<svg class="header-image" xmlns="http://www.w3.org/2000/svg" xmlns:xlink="http://www.w3.org/1999/xlink" viewBox="-0.939 0 914 920" xml:space="preserve">
	<path fill="#FFFFFF" d="M453.061,0c-45.713,0-89.868,6.669-131.546,19.085l103.159,283.426c9.213-1.649,18.7-2.511,28.388-2.511c88.366,0,160,71.634,160,160c0,59.435-32.407,111.298-80.515,138.889l103.156,283.419C798.889,811.635,913.061,649.153,913.061,460C913.061,205.949,707.112,0,453.061,0z M154.595,109.973C79.966,173.67,25.958,260.811,3.969,360h241.629L154.595,109.973z M0,540c37.661,214.755,224.28,378.227,449.413,379.977L311.112,540H0z"/>
</svg>
