<?xml version="1.0" encoding="utf-8"?>
<!-- Generator: Adobe Illustrator 18.0.0, SVG Export Plug-In . SVG Version: 6.00 Build 0)  -->
<!DOCTYPE svg PUBLIC "-//W3C//DTD SVG 1.1//EN" "http://www.w3.org/Graphics/SVG/1.1/DTD/svg11.dtd">
<svg version="1.1" id="Layer_1" xmlns="http://www.w3.org/2000/svg" xmlns:xlink="http://www.w3.org/1999/xlink" x="0px" y="0px"
	 viewBox="0 0 60 60" enable-background="new 0 0 60 60" xml:space="preserve">
<path fill="none" stroke="#000000" stroke-width="1" stroke-linecap="round" stroke-linejoin="round" stroke-miterlimit="10" d="
	M50,41c0,4.4-3.6,8-8,8H18c-4.4,0-8-3.6-8-8V18c0-4.4,3.6-8,8-8h24c4.4,0,8,3.6,8,8V41z"/>
<path fill="none" stroke="#000000" stroke-width="1" stroke-linecap="round" stroke-linejoin="round" stroke-miterlimit="10" d="
	M44.2,15.3h-3.9c-0.7,0-1.3,0.6-1.3,1.3v3.9c0,0.7,0.6,1.3,1.3,1.3h3.9c0.7,0,1.3-0.6,1.3-1.3v-3.9C45.5,15.9,44.9,15.3,44.2,15.3z"
	/>
<path fill-rule="evenodd" clip-rule="evenodd" fill="none" stroke="#000000" stroke-width="1" stroke-linecap="round" stroke-linejoin="round" stroke-miterlimit="10" d="
	M30,45c-6.1,0-11-4.9-11-11s4.9-11,11-11s11,4.9,11,11S36.1,45,30,45z"/>
<path fill-rule="evenodd" clip-rule="evenodd" fill="none" stroke="#000000" stroke-width="1" stroke-linecap="round" stroke-linejoin="round" stroke-miterlimit="10" d="
	M30,40c-3.3,0-6-2.7-6-6s2.7-6,6-6s6,2.7,6,6S33.3,40,30,40z"/>
<path fill-rule="evenodd" clip-rule="evenodd" fill="none" stroke="#000000" stroke-width="1" stroke-linejoin="round" stroke-miterlimit="10" d="
	M11,25h13"/>
<path fill-rule="evenodd" clip-rule="evenodd" fill="none" stroke="#000000" stroke-width="1" stroke-linejoin="round" stroke-miterlimit="10" d="
	M36,25h14"/>

</svg>
