<?xml version="1.0" encoding="utf-8"?>
<!-- Generator: Adobe Illustrator 18.0.0, SVG Export Plug-In . SVG Version: 6.00 Build 0)  -->
<!DOCTYPE svg PUBLIC "-//W3C//DTD SVG 1.1//EN" "http://www.w3.org/Graphics/SVG/1.1/DTD/svg11.dtd">
<svg version="1.1" id="Layer_1" xmlns="http://www.w3.org/2000/svg" xmlns:xlink="http://www.w3.org/1999/xlink" x="0px" y="0px"
	 viewBox="0 0 60 60" enable-background="new 0 0 60 60" xml:space="preserve">
<path fill-rule="evenodd" clip-rule="evenodd" fill="none" stroke="#000000" stroke-width="1" stroke-linecap="round" stroke-linejoin="round" stroke-miterlimit="10" d="
	M17.8,49.9H9.7V21.7h8.1V49.9z"/>
<path fill-rule="evenodd" clip-rule="evenodd" fill="none" stroke="#000000" stroke-width="1" stroke-linecap="round" stroke-linejoin="round" stroke-miterlimit="10" d="
	M14,18.5c-2.7,0-4.5-1.9-4.5-4.3c0-2.4,1.8-4.3,4.6-4.3c2.8,0,4.5,1.9,4.5,4.3C18.6,16.6,16.9,18.5,14,18.5z"/>
<path fill-rule="evenodd" clip-rule="evenodd" fill="none" stroke="#000000" stroke-width="1" stroke-linecap="round" stroke-linejoin="round" stroke-miterlimit="10" d="
	M42.2,50V34.3c0-3.6-1.8-6-4.9-6c-2.4,0-4.4,1.6-5,3.2c-0.2,0.6-0.3,1.4-0.3,2.2V50h-8.1V30.8c0-3.5,0-6.5-0.1-9l7.4-0.1l0.4,4.1
	h0.2c1.1-1.8,3.9-4.5,8.6-4.5c5.7,0,9.8,3.8,9.8,12V50H42.2z"/>
</svg>
