<?xml version="1.0" encoding="UTF-8" standalone="no"?>
<!-- Created with Inkscape (http://www.inkscape.org/) -->

<svg
   xmlns:dc="http://purl.org/dc/elements/1.1/"
   xmlns:cc="http://creativecommons.org/ns#"
   xmlns:rdf="http://www.w3.org/1999/02/22-rdf-syntax-ns#"
   xmlns:svg="http://www.w3.org/2000/svg"
   xmlns="http://www.w3.org/2000/svg"
   version="1.1"
   viewBox="0 0 300 300"
   id="doodle">
  <path style="fill:none;stroke:#000000;stroke-width:1px;stroke-linecap:butt;stroke-linejoin:miter;stroke-opacity:1" d="m 110.37327,123.94118 c -1.23784,-2.5033 -3.96888,-3.98145 -6.48366,-4.9848 -3.81857,-0.89641 -7.984066,-0.72126 -11.688201,0.62599 -3.48584,1.24201 -6.097787,4.32189 -7.259274,7.75779 -0.836358,3.71817 1.766744,7.1659 4.743342,9.07905 3.760149,2.93113 9.380491,4.91056 13.741543,2.08202 4.73064,-2.18416 7.87883,-7.21227 7.74267,-12.42853 -1.03028,-3.23655 2.5894,-5.11888 5.22007,-5.77429 2.62523,-0.46322 5.7813,-0.97713 8.17172,0.28442 2.47163,2.51491 5.1084,-0.57509 6.28743,-2.73108 1.60178,-2.99413 4.9628,-3.78181 7.91109,-4.79639 4.52469,-1.43441 10.1489,-1.00779 13.35881,2.8753 3.42901,3.72123 4.05714,10.42264 -0.0247,13.91712 -4.15433,4.99139 -11.40306,6.5583 -17.51482,4.87734 -3.63595,-2.3027 -7.22213,-6.21784 -6.48435,-10.85302 -0.10704,-0.53626 -0.2748,-1.04477 -0.49265,-1.54614" />
  <path style="fill:none;stroke:#000000;stroke-width:1px;stroke-linecap:butt;stroke-linejoin:miter;stroke-opacity:1" d="m 84.798973,129.05604 c -4.146005,-0.23664 -8.340497,-0.31168 -12.449281,-0.39015 -1.937387,0.46403 -3.209623,2.33371 -3.702906,4.15953" />
  <path style="fill:none;stroke:#000000;stroke-width:1px;stroke-linecap:butt;stroke-linejoin:miter;stroke-opacity:1" d="m 154.52257,121.24915 c 8.55442,-3.17385 17.43509,-5.59087 26.45569,-6.95602 1.4147,-0.13842 3.00884,0.14479 3.96426,1.30275" />
  <path style="fill:none;stroke:#000000;stroke-width:1px;stroke-linecap:butt;stroke-linejoin:miter;stroke-opacity:1" d="m 100.41275,168.62889 7.26849,-9.69131 -5.11486,9.96052 6.73007,-9.42211 -2.96123,8.34529 5.11486,-7.53768 -1.34602,8.6145 3.23044,-7.53769 2.15363,6.99928 0.2692,-6.99928 4.30725,5.92247 -1.61522,-6.73008 4.84565,7.53769 -1.61521,-7.53769 4.30725,7.26848 -1.61522,-8.34529 5.65326,7.80689 -1.88442,-8.0761 5.38406,7.80689 -1.88442,-7.26848 5.11486,6.46087 -2.15363,-7.26848 4.84566,7.80689 -2.15362,-7.53769 4.84565,6.46088 -3.76884,-7.80689 7.53768,8.34529" />
</svg>
