<?xml version="1.0" encoding="UTF-8" standalone="no"?>
<!-- Created with Inkscape (http://www.inkscape.org/) -->

<svg
   xmlns:dc="http://purl.org/dc/elements/1.1/"
   xmlns:cc="http://creativecommons.org/ns#"
   xmlns:rdf="http://www.w3.org/1999/02/22-rdf-syntax-ns#"
   xmlns:svg="http://www.w3.org/2000/svg"
   xmlns="http://www.w3.org/2000/svg"
   xmlns:sodipodi="http://sodipodi.sourceforge.net/DTD/sodipodi-0.dtd"
   xmlns:inkscape="http://www.inkscape.org/namespaces/inkscape"
   version="1.1"
   inkscape:version="0.48.5 r10040"
   sodipodi:docname="me-w-img.svg"
   viewBox="0 0 300 300"
   id="me">
  <metadata
     id="metadata3061">
    <rdf:RDF>
      <cc:Work
         rdf:about="">
        <dc:format>image/svg+xml</dc:format>
        <dc:type
           rdf:resource="http://purl.org/dc/dcmitype/StillImage" />
        <dc:title></dc:title>
      </cc:Work>
    </rdf:RDF>
  </metadata>
  <defs
     id="defs3059" />
  <sodipodi:namedview
     pagecolor="#ffffff"
     bordercolor="#666666"
     borderopacity="1"
     objecttolerance="10"
     gridtolerance="10"
     guidetolerance="10"
     inkscape:pageopacity="0"
     inkscape:pageshadow="2"
     inkscape:window-width="893"
     inkscape:window-height="758"
     id="namedview3057"
     showgrid="false"
     inkscape:zoom="0.92866691"
     inkscape:cx="220.28034"
     inkscape:cy="248.108"
     inkscape:window-x="0"
     inkscape:window-y="0"
     inkscape:window-maximized="0"
     inkscape:current-layer="svg3055" />
  <path
     style="fill:none;stroke:#000000;stroke-width:1px;stroke-linecap:butt;stroke-linejoin:miter;stroke-opacity:1"
     d="m 218.08421,127.78911 c -4.3911,9.24088 -7.15782,12.74889 -17.14209,21.36152 13.88479,-4.56071 17.79175,-4.76919 28.37283,-4.99095"
     id="path3065"
     inkscape:connector-curvature="0"
     sodipodi:nodetypes="ccc" />
  <path
     style="fill:none;stroke:#000000;stroke-width:1.10640836px;stroke-linecap:butt;stroke-linejoin:miter;stroke-opacity:1"
     d="m 201.20559,149.04823 c 37.56722,-18.00552 66.3351,-48.22144 55.80946,-85.544582"
     id="path3067"
     inkscape:connector-curvature="0"
     sodipodi:nodetypes="cc" />
  <path
     style="fill:none;stroke:#000000;stroke-width:1px;stroke-linecap:butt;stroke-linejoin:miter;stroke-opacity:1"
     d="m 228.40124,66.062515 c 0.10968,-3.222957 -0.53964,-6.435173 -0.23238,-9.656273 -0.19596,-3.565805 -1.11652,-7.056379 -1.16885,-10.634811 -0.35713,-4.262328 -0.87985,-8.525561 -0.7524,-12.810084 1.33857,0.871036 1.82169,2.563616 3.11329,3.51158 1.4411,1.566749 2.43164,3.491614 3.76208,5.126428 1.33794,1.289548 2.20076,3.093826 3.89721,3.983085 0.6658,-1.89397 0.044,-3.923926 0.26469,-5.876862 -10e-4,-2.25168 -0.006,-4.503366 2.2e-4,-6.755043 0.71365,-1.421095 0.0207,-3.491555 1.43144,-4.529005 1.5158,-0.151409 2.24971,1.815432 3.02926,2.886323 1.02318,2.086191 2.74252,3.811608 3.26092,6.133764 0.8257,2.819884 2.32591,5.419437 2.98435,8.30309 1.19863,2.815528 2.83808,5.460128 3.50468,8.482527 0.3344,1.241967 0.60061,2.500826 0.86472,3.759189"
     id="path3164"
     inkscape:connector-curvature="0" />
  <path
     style="fill:none;stroke:#000000;stroke-width:1px;stroke-linecap:butt;stroke-linejoin:miter;stroke-opacity:1"
     d="m 257.47517,45.60308 c 3.47666,0.168685 7.07914,-0.209825 10.2277,-1.786277 2.37128,-0.506089 3.58316,-3.080779 3.6161,-5.320393 0.1503,-1.396138 -0.25599,-2.983685 -1.45755,-3.824133 -2.18554,-0.685141 -4.60801,-0.561687 -6.75458,0.191969 -2.71383,1.33614 -4.13542,4.250193 -4.91866,7.032825 -0.91782,3.076246 -0.55869,6.768978 1.78467,9.136288 2.91956,3.181068 7.35004,4.615087 11.58675,4.607963 2.88095,-0.261598 4.97967,-2.580605 6.52802,-4.822817 0.58267,-0.876684 1.07284,-1.814629 1.46215,-2.792588"
     id="path3166"
     inkscape:connector-curvature="0" />
</svg>
