<?xml version="1.0" encoding="utf-8"?>
<!-- Generator: Adobe Illustrator 18.0.0, SVG Export Plug-In . SVG Version: 6.00 Build 0)  -->
<!DOCTYPE svg PUBLIC "-//W3C//DTD SVG 1.1//EN" "http://www.w3.org/Graphics/SVG/1.1/DTD/svg11.dtd">
<svg version="1.1" id="Layer_1" xmlns="http://www.w3.org/2000/svg" xmlns:xlink="http://www.w3.org/1999/xlink" x="0px" y="0px"
	 viewBox="0 0 60 60" enable-background="new 0 0 60 60" xml:space="preserve">
<path fill-rule="evenodd" clip-rule="evenodd" fill="none" stroke="#000000" stroke-width="1" stroke-linecap="round" stroke-linejoin="round" stroke-miterlimit="10" d="
	M46.5,18.4c0,0,3.4-0.3,4.7-1.3c0,0-0.3,1.2-4.4,4.9c0,0,1.4,19.9-19.5,24.8c0,0-10.6,2.3-18.2-3.5c0,0,8,1.4,12.5-3.6
	c0,0-5.8,0.1-7.7-5.9c0,0,2.2,0.5,3.5-0.1c0,0-6.6-1.4-6.5-8.6c0,0,1.8,1.3,3.4,1.1c0,0-5.9-5.1-2.3-11.4c0,0,8,9.4,17.8,8.9
	c-0.2-0.7-0.3-1.4-0.3-2.1c0-4.7,3.8-8.5,8.5-8.5c2.4,0,4.5,1,6,2.5c1.1,0,3.4-0.2,5.8-1.8C50,13.8,50.1,15.6,46.5,18.4z"/>
</svg>
