<svg xmlns="http://www.w3.org/2000/svg" viewBox="0 0 350 141">
  <path fill="#138" d="M45.874 61.626H35.099l5.732-18.721 5.043 18.721zM29.521 82.254l3.667-12.309H47.71l3.436 12.309h13.45L51.221 35.337c-.762-2.751-2.442-4.047-5.347-4.047H26.847v4.429h1.602c1.988 0 3.057.769 3.057 2.294 0 .994-.229 1.83-.992 4.127L17.138 82.254h12.383zm50.565-.003V35.188c0-2.453-1.449-3.901-3.815-3.901H64.503v4.43h.761c1.985 0 2.826.844 2.826 2.826v43.708h11.996zm20.389 0V35.188c0-2.453-1.453-3.901-3.823-3.901H84.881v4.43h.77c1.983 0 2.823.844 2.823 2.826v43.708h12.001zm20.912-46.299c0-3.444-2.521-5.506-6.875-5.506-4.277 0-6.88 2.062-6.88 5.506 0 3.438 2.603 5.497 6.88 5.497 4.354 0 6.875-2.059 6.875-5.497m-.227 46.299V47.943c0-2.439-1.453-3.895-3.82-3.895h-11.615v4.36h.692c1.983 0 2.823.913 2.823 2.901V82.25h11.92zm26.27-18.336v7.413c-1.99 2.07-4.432 3.289-6.498 3.289-2.141 0-2.906-1.065-2.906-3.893 0-2.832.614-4.135 2.753-4.971 1.601-.686 3.67-1.301 6.651-1.838m-16.125-8.935c3.976-1.91 8.327-2.982 11.77-2.982 3.206 0 4.354 1.149 4.354 4.506v.845c-4.896.758-6.423 1.065-9.169 1.677-1.608.388-3.058.841-4.506 1.454-4.824 1.909-7.112 5.65-7.112 11.386 0 7.257 3.133 10.778 9.625 10.778 2.372 0 4.511-.466 6.417-1.229 1.691-.765 2.68-1.368 5.124-3.283v.53c0 2.371 1.226 3.588 3.598 3.588h10.918v-4.118h-.531c-2.06 0-2.824-.914-2.824-3.36V56.58c0-9.699-3.365-13.065-13.065-13.065a40.65 40.65 0 0 0-9.17 1.068c-2.979.692-4.511 1.301-8.104 3.056l2.675 7.341zm48.421 27.271V56.428c1.996-2.206 4.053-3.208 6.433-3.208 2.512 0 3.128 1.002 3.128 4.811v24.221h11.923V56.276c0-6.035-.463-7.939-2.378-10.01-1.601-1.761-4.047-2.668-7.181-2.668-4.664 0-7.953 1.45-12.381 5.575v-1.534c0-2.364-1.219-3.593-3.663-3.593h-11.309v4.36h.682c1.985 0 2.832.916 2.832 2.904v30.941h11.914zm56.842-8.016h-16.661l15.9-22.314v-7.873H210.89c-2.824 0-4.122 1.304-4.122 4.128v6.956h4.427v-.689c0-1.752.923-2.6 2.828-2.6h8.564l-16.055 22.542v7.866h30.036v-8.016zm62.566 7.026V38.089c0-3.436-1.226-4.584-4.59-4.584h-10.089v4.811h.609c2.299 0 2.759.537 2.759 3.286v39.659h11.311zm4.961 0h11.227V47.639c0-3.36-1.28-4.584-4.578-4.584h-6.648v38.206zm-21.243 0V43.055H276.2c-3.281 0-4.574 1.224-4.574 4.584v33.622h11.226zm43.103-21.93c0 19.028-13.697 32.861-32.481 32.861-18.793 0-32.479-13.833-32.479-32.861 0-19.027 13.686-32.862 32.479-32.862 18.784 0 32.481 13.912 32.481 32.862m6.648 0c0-22.388-16.746-39.127-39.129-39.127-22.39 0-39.119 16.739-39.119 39.127 0 22.39 16.729 39.119 39.119 39.119 22.382 0 39.129-16.729 39.129-39.119"/>
</svg>
