<svg viewBox="74 0 223 111" xmlns="http://www.w3.org/2000/svg">
  <path fill="#1164D0" d="M296.449 0L74.276 38.995l12.757 71.213 209.416-37.053z"/>
  <path fill="#FFF" d="M88.029 80.075l8.277-38.973h22.646l-2.462 8.218h-11.909l-1.398 6.543h9.731l-1.678 7.94h-9.731l-1.676 7.94h13.363l-1.79 8.332zm33.159-39.422l10.12-1.676c.114 1.398-.22 4.362-.838 7.214l-4.583 21.413c-1.064 5.089-1.177 6.434 1.004 6.434.334 0 .67-.056 1.06-.17l.282 6.042c-1.398.502-3.803.892-6.486.892-8.22 0-7.492-4.247-6.263-10.01l4.194-19.683c1.454-6.71 1.566-8.831 1.51-10.456z"/>
  <path d="M145.415 57.708c-.727 0-2.125-.053-3.523 1.569-2.07 2.403-3.3 8.05-3.3 11.629 0 1.956.561 2.795 1.902 2.795 1.177 0 3.186-2.012 3.411-2.961l2.686-12.64c-.34-.28-.839-.392-1.176-.392m10.343 2.406l-2.178 10.402c-.224.948-.168 2.96 1.117 4.36l-7.884 6.32c-1.174-.618-2.013-2.347-2.18-3.413-1.287 1.344-4.139 3.188-7.495 3.188-5.87 0-8.33-3.691-8.33-9.841 0-6.152 2.46-12.527 6.208-16.274 3.298-3.298 6.82-4.362 11.91-4.362 3.968 0 8.891.674 11.013 1.735-.836 2.015-1.676 5.479-2.18 7.885m21.921-9.619c7.212 0 7.942 4.084 7.046 8.277l-4.53 21.302h-9.73l3.914-18.45c.505-2.237.225-3.245-1.398-3.245-1.566 0-2.795.784-4.025 2.687l-4.084 19.008h-9.728L159 61.902c.899-4.362 1.233-6.933.786-9.787l8.612-1.62c.224.952.446 1.956.502 3.13 2.237-1.954 5.59-3.13 8.78-3.13m16.722 30.307c-8.056 0-11.97-5.142-9.9-14.873 2.072-9.788 7.997-15.435 16.496-15.435 4.14 0 6.377 1.064 8.727 3.41l-5.707 5.872c-.84-1.173-2.293-2.122-3.635-2.122-2.237 0-3.912 1.788-5.142 7.66-1.232 5.87-1.12 8.274 1.676 8.274 2.18 0 4.193-1.06 5.816-2.57l2.908 5.7c-3.748 3.08-7.717 4.084-11.24 4.084" fill="#FFF"/>
  <path d="M215.9 71.353c0 1.79.615 2.627 2.178 2.627 4.031 0 5.706-12.132 5.706-14.09 0-1.96-.727-2.627-2.18-2.627-4.028 0-5.704 12.075-5.704 14.09m18.174-10.627c0 7.553-4.193 20.078-17.672 20.078-6.82 0-10.68-3.75-10.68-10.403 0-7.435 4.028-19.906 17.672-19.906 6.038 0 10.68 2.964 10.68 10.23" fill="#FFF"/>
</svg>
