<svg xmlns="http://www.w3.org/2000/svg" viewBox="0 0 188.22 102.6">
  <path d="M83.77 43.08a4.61 4.61 0 1 1-4.62 4.61 4.61 4.61 0 0 1 4.62-4.61m104.45 15.71C181 66 158.32 85.88 152.33 102.6l-7.42-1.91c2.44-6.92 9.73-17.69 17.86-26a14.53 14.53 0 0 1-5 .9 6.15 6.15 0 0 1-4.94-1.91 5.29 5.29 0 0 1-1.11-3.46 7.85 7.85 0 0 1 .06-.95c-7.15 4.35-12.9 6.32-18.52 6.32-4.39 0-8.07-1.91-9.78-5.26-7.1 3.52-13.9 5.26-19.58 5.26-5.3 0-9.56-2.1-11.52-5.91-7.18 4-13.28 5.91-18.14 5.91-2.79 0-5-.77-6.44-2.24a6.32 6.32 0 0 1-1.67-4.21c-4.61 3-11.32 6.45-18.21 6.45a26.73 26.73 0 0 1-15.44-4.81 39 39 0 0 1-19.08 4.81C8.3 75.58 0 73.44 0 66.07c0-6 6.21-10 14.52-10a32.57 32.57 0 0 1 18.14 6.07C36.72 58.92 41 54.41 46 48c-1.1.06-2.18.09-3.24.09-9.61 0-17.64-2.83-22-7.79a13.58 13.58 0 0 1-3.48-9.2c0-13.37 16.88-23.74 31.65-25.27 1 2.21 1.85 3.92 2.75 5.95-14.62 1.71-26.77 10.35-26.77 18.79 0 5.55 6.23 11.12 19.47 11.12a49 49 0 0 0 6.78-.53C62.84 25 80.74 0 96.15 0c4.56 0 6.94 2.77 6.94 6.48 0 7.62-6.56 15.83-10.82 20.11-6.72 6.74-18.86 16.78-35.81 20.1C49.86 55.87 44.44 62 39 66.35a20.43 20.43 0 0 0 10 2.86c9.13 0 18-8.36 24.9-15.44l.24-.23 5.4 4.21-.26.29c-3.05 3.51-5.87 7.21-5.87 9.29 0 1.57 1.33 1.89 2.47 1.89 3.5 0 8.89-2.26 15.22-6.16V63c.7-15.66 22.09-39.62 35.06-39.62 3.67 0 5.76 1.83 5.76 5 0 7.85-13.54 24.7-33.25 37.58 1 2.19 3.36 3.25 7.34 3.25 3.12 0 9.2-1.39 16.42-5.17.84-8.12 5.44-16.83 11.27-23s12.41-10.27 18.08-10.27c3.5 0 5.56 1.92 5.56 5 0 6.85-8 18.56-27.11 30.82.86 1.64 2.5 2.68 5.05 2.68 5.71 0 15.77-6.09 23.6-13.58l5.69 4.31c-2.4 2.91-4.82 6.11-4.75 8 0 .59.43 1 1.37 1 5.81 0 14.81-7.65 21.66-14.38zM62.34 38.34C70.79 35.63 78.82 30 84.79 24c5.54-5.48 10-12 10-15.2a1.13 1.13 0 0 0-1.19-1.18c-2.55 0-7.41 3.4-13.95 9.95a173.69 173.69 0 0 0-17.31 20.77zm-36.14 28a23.31 23.31 0 0 0-12.23-4c-4.17 0-6.84 1.63-6.84 3.71 0 2.37 3.23 3.41 6.86 3.41a27.2 27.2 0 0 0 12.21-3.17zm72.43-7.83c11.79-8.91 24.18-21.88 25.51-27.21a2.07 2.07 0 0 0 .07-.51.63.63 0 0 0-.65-.66c-3.72-.05-21.02 15.87-24.93 28.33zm31.29 1.43c1.09-.78 2.27-1.68 3.37-2.55 8.47-6.78 14.94-14.21 16.22-18.32a3 3 0 0 0 .15-.81c0-.43-.2-.72-.58-.72-3.89 0-16.37 12.42-19.39 22.48z" fill="#ed1b2e"/>
</svg>
