<svg xmlns="http://www.w3.org/2000/svg" viewBox="0 0 35 32">
  <g fill="none" fill-rule="evenodd">
    <path d="M16.07 29.91H8.03l-.744-6.022-4.876-3.583a16.16 16.16 0 0 1-.32-3.202c0-8.838 7.097-16.01 15.84-16.01 8.744 0 15.84 7.172 15.84 16.01 0 1.076-.106 2.148-.32 3.202l-4.874 3.583-.745 6.023H19.8l-.464.35a2.35 2.35 0 0 1-2.797 0l-.466-.34z" stroke="#FEFEFE" stroke-width="2.391" />
    <path d="M16.07 29.91H8.03l-.744-6.022-4.876-3.583a16.16 16.16 0 0 1-.32-3.202c0-8.838 7.097-16.01 15.84-16.01 8.744 0 15.84 7.172 15.84 16.01 0 1.076-.106 2.148-.32 3.202l-4.874 3.583-.745 6.023H19.8l-.464.35a2.35 2.35 0 0 1-2.797 0l-.466-.34z" fill="#FED300" />
    <path d="M16.32 27.11h-5.84l-.59-4.773L5.074 18.8a6.94 6.94 0 0 1-.213-1.697c0-.957.2-1.902.59-2.775l8.52 8.708L5.69 12.7a6.765 6.765 0 0 1 2.07-3.465l7.42 12.955L8.6 8.005a6.717 6.717 0 0 1 3.39-2.412l4.54 16.08L13.214 4.93a6.68 6.68 0 0 1 4.047-.837l.68 17.41.678-17.41a6.672 6.672 0 0 1 4.042.838l-3.32 16.74 4.54-16.075a6.722 6.722 0 0 1 3.39 2.412L20.69 22.19l7.42-12.955a6.84 6.84 0 0 1 2.068 3.466l-8.284 10.34 8.52-8.704c.387.872.585 1.817.585 2.774 0 .57-.07 1.14-.21 1.695l-4.82 3.534-.59 4.77h-5.84l-.865.634c-.217.16-.478.248-.746.248-.26 0-.52-.085-.74-.244l-.86-.636zm-.25 2.8H8.03l-.744-6.02-4.876-3.585a16.242 16.242 0 0 1-.32-3.202c0-8.838 7.097-16.01 15.84-16.01 8.745 0 15.84 7.172 15.84 16.01 0 1.075-.106 2.148-.32 3.202l-4.874 3.584-.745 6.02H19.8l-.464.34a2.355 2.355 0 0 1-2.796 0l-.464-.34z" fill="#DA1419" />
  </g>
</svg>
