<svg xmlns="http://www.w3.org/2000/svg" viewBox="0 0 1000 670.221">
  <path d="M721.418 308.808s-41.542 12.004-121.899 61.384c-72.04 44.344-100.289 74.137-100.289 74.137L276.983 290.734s93.5-68.757 171.624-16.095l104.8 71.89 12.782-8.408-289.16-202.585s41.556-12.02 121.868-61.37C470.981 29.808 499.23 0 499.23 0l222.233 153.594s-93.485 68.758-171.624 16.096l-104.8-71.905-12.782 8.393 289.16 202.63z" fill="#e20a17"/>
  <path d="M549.294 518.338h-169.15v37.615h81.705l-84.583 78.963v31.516h171.713v-37.765h-85.437l85.752-78.768v-31.561zM280.55 670.221c67.648 0 84.972-17.28 84.972-55.374v-96.512h-53.59v90.742c0 15.24-13.039 24.323-31.382 24.323-19.078 0-31.351-9.127-31.351-24.563v-90.502h-53.591v96.512c0 38.095 17.324 55.374 84.942 55.374m366.945 0c67.648 0 84.972-17.28 84.972-55.374v-96.512h-53.606v90.742c0 15.24-13.053 24.323-31.366 24.323-19.078 0-31.397-9.127-31.397-24.563v-90.502h-53.576v96.512c0 38.095 17.324 55.374 84.973 55.374M1000 518.338h-55.884v148.094H1000V518.338zm-64.398 0H862.08l-59.495 51.103v-51.103h-55.9v148.094h55.9v-52.527l55.254 52.527h75.082l-81.72-75.98 84.402-72.114zm-872.09 40.92c0-11.45 16.965-11.825 22.69-11.825 5.74 0 18.672 2.293 27.47 16.725h63.197c0-27.904-26.451-50.1-90.473-50.1-71.11 0-83.219 31.202-83.219 49.126 0 33.045 25.597 42.726 81.256 48.66 4.766.495 33.72-.868 33.72 13.054 0 10.31-16.276 11-22.27 11-5.95 0-17.085-.974-26.286-17.354H0c0 32.52 21.925 51.313 95.778 51.313 68.023 0 86.081-27.77 86.081-48.886 0-20.5-14.072-41.362-72.07-48.78-24.187-3.132-46.277-4.451-46.277-12.933" fill="#039"/>
</svg>
