<svg xmlns="http://www.w3.org/2000/svg" viewBox="0 0 190.1 44.6">
  <path fill="#4B6F67" d="M22.3 0a22.3 22.3 0 1 0 22.3 22.3A22.32 22.32 0 0 0 22.3 0zm-5.9 33.7h-5V19.2h5zm8.4 0h-5V19.2h5zm8.5 0h-5V19.2h5zm.2-18H11.2V11h22.3zm42.8 1.7h-4.7a3.5 3.5 0 0 0-3.8-3.5c-1.9 0-4 .7-4 2.9 0 5 13.2 1.7 13.2 9.9 0 5.1-4.4 7.4-9 7.4-5.3 0-9.6-1.9-9.6-7.6h5c0 2.5 1.4 4.2 4 4.2 2 0 4.6-.7 4.6-3.1 0-5.3-13-1.7-13-10.2 0-5 4.7-7 9-7 4.5.1 8 2.3 8.3 7zm19.2 16.3l-2.3-7.5c-.5-1.7-.8-3.3-1.2-5-.3 1.2-.5 2.4-.8 3.6l-.4 1.3-2.1 7.7h-5.6L77.9 18h5.3l2.2 8.3.3 1.2.3 1.1c.1.7.2 1.3.3 2a48.78 48.78 0 0 1 1.2-5.5l2-7h5.4l2.1 7.3a30 30 0 0 1 1.1 5.2l.2-.9a24.6 24.6 0 0 1 1.1-4.5l2-7.1h5.1l-5.4 15.8h-5.6zm13.3-15.8h4.7v15.8h-4.7zm-.1-6.9h5v3.9h-5zm20.8 11h-4.2a2.11 2.11 0 0 0-2.3-1.8c-1 0-2.5.3-2.4 1.6.1 1 1.2 1.3 2 1.5l1.8.5c2.8.6 5.9 1.8 5.9 5.1 0 4-4.1 5.2-7.4 5.2s-6.5-1.5-6.7-5h4.4a2.43 2.43 0 0 0 2.6 2.1c1.2 0 2.8-.5 2.8-2 0-3-9.4-.9-9.4-7 0-3.7 3.7-4.9 6.8-4.9 2.9 0 5.7 1.2 6.2 4.3zm15.6 0h-4.2a2.11 2.11 0 0 0-2.3-1.8c-1 0-2.5.3-2.4 1.6.1 1 1.2 1.3 2 1.5l1.8.5c2.8.6 5.9 1.8 5.9 5.1 0 4-4.1 5.2-7.4 5.2s-6.5-1.5-6.7-5h4.4a2.43 2.43 0 0 0 2.6 2.1c1.2 0 2.8-.5 2.8-2 0-3-9.4-.9-9.4-7 0-3.7 3.7-4.9 6.8-4.9 2.9 0 5.7 1.2 6.2 4.3zm22.2.4c2.8-.8 4.9-2.5 4.9-5.6 0-4.4-4.1-5.8-7.8-5.8H155v22.7h4.9v-9.2h3.8c4.4 0 3.3 6.1 4 9.2h5.3c-2.4-4.3.5-10.1-5.7-11.3zm-4-1.6h-3.5v-6.2h3.6c2 0 3.7.9 3.7 3.1s-1.7 3.1-3.8 3.1zm19.3 10.5c-2.5 0-3-2.2-3-4.3h10.5c0-5.1-1.8-9.6-7.7-9.6-5.1 0-7.6 4.1-7.6 8.8 0 4.9 2.9 7.9 7.8 7.9 3.3 0 6.7-1.4 7-5.1h-4.2a2.58 2.58 0 0 1-2.8 2.3zm-.3-11c2.4 0 2.8 2 2.9 3.9h-5.6c.1-1.8.6-3.9 2.7-3.9z"/>
</svg>
