<svg id="me" xmlns="http://www.w3.org/2000/svg" viewBox="0 0 300 300"><path d="M218.084 127.79c-4.39 9.24-7.158 12.748-17.142 21.36 13.885-4.56 17.792-4.77 28.373-4.99" stroke="#000" fill="none"/><path d="M201.206 149.048c37.567-18.005 66.335-48.22 55.81-85.544" stroke="#000" stroke-width="1.106" fill="none"/><path d="M228.4 66.063c.11-3.223-.538-6.436-.23-9.657-.197-3.566-1.118-7.056-1.17-10.635-.357-4.26-.88-8.524-.752-12.81 1.338.872 1.82 2.565 3.113 3.513 1.442 1.567 2.433 3.492 3.763 5.126 1.338 1.29 2.2 3.093 3.897 3.982.666-1.894.044-3.923.265-5.876 0-2.252-.006-4.504 0-6.755.714-1.42.02-3.49 1.432-4.528 1.515-.152 2.25 1.815 3.03 2.886 1.022 2.086 2.74 3.81 3.26 6.134.825 2.82 2.326 5.42 2.984 8.303 1.2 2.815 2.84 5.46 3.506 8.482.334 1.242.6 2.5.864 3.76" stroke="#000" fill="none"/><path d="M257.475 45.603c3.477.17 7.08-.21 10.228-1.786 2.37-.506 3.583-3.08 3.616-5.32.15-1.397-.257-2.984-1.46-3.825-2.184-.685-4.607-.56-6.753.192-2.714 1.336-4.136 4.25-4.92 7.033-.917 3.076-.558 6.77 1.786 9.136 2.92 3.18 7.35 4.615 11.587 4.608 2.88-.26 4.98-2.58 6.528-4.82.582-.878 1.072-1.816 1.462-2.794" stroke="#000" fill="none"/></svg>
<svg id="doodle" xmlns="http://www.w3.org/2000/svg" viewBox="0 0 300 300"><path d="M110.373 123.94c-1.238-2.502-3.97-3.98-6.483-4.984-3.82-.896-7.984-.72-11.69.626-3.484 1.242-6.096 4.322-7.258 7.758-.836 3.718 1.767 7.166 4.743 9.08 3.76 2.93 9.38 4.91 13.742 2.08 4.73-2.183 7.88-7.21 7.743-12.427-1.03-3.237 2.59-5.12 5.22-5.775 2.625-.463 5.78-.977 8.17.285 2.473 2.515 5.11-.575 6.29-2.73 1.6-2.995 4.962-3.783 7.91-4.798 4.525-1.434 10.15-1.007 13.36 2.876 3.428 3.722 4.056 10.423-.026 13.918-4.154 4.99-11.403 6.558-17.515 4.877-3.637-2.303-7.223-6.218-6.485-10.853-.107-.536-.275-1.045-.493-1.546" stroke="#000" fill="none"/><path d="M84.8 129.056c-4.147-.237-8.342-.312-12.45-.39-1.938.464-3.21 2.334-3.703 4.16" stroke="#000" fill="none"/><path d="M154.523 121.25c8.554-3.175 17.435-5.592 26.455-6.957 1.415-.138 3.01.145 3.965 1.303" stroke="#000" fill="none"/><path d="M100.413 168.63l7.268-9.692-5.114 9.96 6.73-9.422-2.96 8.345 5.114-7.536-1.346 8.614 3.23-7.538 2.154 7 .27-7 4.307 5.923-1.616-6.73 4.845 7.537-1.615-7.537 4.307 7.268-1.615-8.344 5.653 7.807-1.884-8.076 5.385 7.807-1.885-7.27 5.115 6.462-2.153-7.268 4.845 7.806-2.153-7.537 4.845 6.46-3.77-7.806 7.538 8.346" stroke="#000" fill="none"/></svg></svg>